<svg width="18" height="18" viewBox="0 0 18 18" fill="none" xmlns="http://www.w3.org/2000/svg">
<circle cx="9" cy="9" r="9" fill="#C4C4C4"/>
<path d="M9.00015 3.28848C7.56633 3.28848 6.404 4.45082 6.404 5.88464C6.404 7.31845 7.56633 8.48079 9.00015 8.48079C10.434 8.48079 11.5963 7.31845 11.5963 5.88464C11.5963 4.45082 10.434 3.28848 9.00015 3.28848Z" fill="white"/>
<path d="M6.23092 9.86541C4.7971 9.86541 3.63477 11.0277 3.63477 12.4616V13.2842C3.63477 13.8057 4.01269 14.2503 4.52734 14.3343C7.4896 14.818 10.5107 14.818 13.473 14.3343C13.9876 14.2503 14.3655 13.8057 14.3655 13.2842V12.4616C14.3655 11.0277 13.2032 9.86541 11.7694 9.86541H11.5334C11.4057 9.86541 11.2787 9.8856 11.1573 9.92525L10.5581 10.1209C9.54578 10.4515 8.45452 10.4515 7.44217 10.1209L6.84297 9.92525C6.72155 9.8856 6.59463 9.86541 6.46691 9.86541H6.23092Z" fill="white"/>
</svg>
