<svg width="49" height="48" viewBox="0 0 49 48" fill="none" xmlns="http://www.w3.org/2000/svg">
<path d="M48.765 17.8133C48.149 15.9241 46.4839 14.5846 44.5167 14.3867C44.1473 12.6814 42.8866 11.7928 42.5043 11.5604C41.0875 10.6297 39.5369 10.8332 39.185 10.8967C38.9763 10.6353 38.2772 9.88301 37.1107 9.7486C36.7487 9.71126 36.3525 9.7542 35.972 9.88021C35.9498 9.88768 35.9295 9.89421 35.9101 9.90168V9.84474C35.9101 9.43777 35.8335 9.04387 35.682 8.71064C35.1971 7.63068 34.2699 7.19011 33.9633 7.06876C33.9115 6.71313 33.6234 5.15899 32.3046 4.08183C31.9721 3.7878 30.7493 2.85345 29.0296 3.0252C28.2335 1.19571 26.4585 0.00746733 24.495 0C22.5297 0.00653391 20.7528 1.19571 19.9576 3.0252C18.2388 2.85345 17.0124 3.7878 16.678 4.0837C15.3629 5.15899 15.0748 6.71313 15.0249 7.06876C14.7173 7.19011 13.791 7.63068 13.3052 8.71064C13.1565 9.04387 13.0753 9.43777 13.0753 9.84474C13.0753 9.86621 13.0762 9.88955 13.078 9.90821C13.0605 9.90355 13.042 9.89795 13.0245 9.89235C12.6412 9.76727 12.2468 9.7178 11.8857 9.7598C10.7165 9.89235 10.0174 10.6465 9.80681 10.906C9.45771 10.8426 7.90799 10.6409 6.48571 11.5744C6.10798 11.8058 4.84918 12.6917 4.47699 14.3951C2.51167 14.5958 0.847424 15.9362 0.232338 17.8227C-0.368895 19.7128 0.19909 21.7869 1.67493 23.1161C0.982263 24.7169 1.48745 26.1823 1.65923 26.5949C2.26508 28.191 3.63748 28.9499 3.95795 29.1067C3.97642 29.4418 4.10387 30.4686 4.97109 31.2676C5.24169 31.5159 5.5871 31.7138 5.97037 31.8388C5.98977 31.8444 6.01008 31.85 6.03133 31.8575C6.02024 31.8734 6.00824 31.8892 5.99808 31.9023C5.76073 32.2318 5.59633 32.5986 5.5206 32.958C5.2851 34.121 5.77827 35.0264 5.95744 35.3093C5.7912 35.6276 5.12163 37.0529 5.56031 38.7088C5.66098 39.1428 6.10521 40.6269 7.5949 41.51C7.17561 43.4636 7.92184 45.476 9.50666 46.6512C11.1007 47.8096 13.2267 47.9067 14.9353 46.8995C16.2264 48.0588 17.7623 48.0308 18.2047 47.9879C19.8929 47.9001 21.0307 46.8146 21.2783 46.5569C21.5978 46.6456 22.6036 46.837 23.6241 46.2526C23.9399 46.0678 24.2327 45.7962 24.4691 45.4686C24.4802 45.4508 24.495 45.4303 24.5061 45.4126C24.5172 45.4294 24.5273 45.4471 24.5393 45.462C24.7758 45.7915 25.0676 46.0622 25.3844 46.2461C26.404 46.8332 27.4097 46.64 27.7302 46.5523C27.9768 46.8118 29.1128 47.8945 30.8084 47.986C31.248 48.0205 32.7811 48.0523 34.0732 46.8958C35.7799 47.902 37.9078 47.8068 39.499 46.6475C41.0848 45.4732 41.831 43.4608 41.4117 41.5044C42.9005 40.6232 43.3466 39.1372 43.4481 38.6976C43.8859 37.0482 43.2145 35.621 43.0473 35.3018C43.2302 35.0218 43.7224 34.1154 43.4869 32.9533C43.4131 32.594 43.2468 32.2281 43.0095 31.8986C42.9984 31.8818 42.9845 31.8631 42.9716 31.8472C42.9901 31.8416 43.0095 31.8342 43.0252 31.8304C43.4094 31.7063 43.7538 31.5075 44.0235 31.2592C44.8917 30.4602 45.0182 29.4343 45.0376 29.0993C45.3571 28.9406 46.7295 28.1845 47.3363 26.5846C47.509 26.1721 48.0105 24.7075 47.3188 23.1086C48.7964 21.7738 49.3635 19.7007 48.765 17.8133ZM39.8897 12.6674C40.4974 12.5003 41.1319 12.5601 41.6952 12.8466C42.3685 13.1873 42.8774 13.8006 43.1249 14.5697C43.2237 14.8768 43.2634 15.1923 43.2579 15.5115C42.1487 16.1416 38.6244 18.1447 35.7633 19.7716C35.5121 19.2984 35.2368 18.8419 34.933 18.4107C36.9039 16.1257 39.1906 13.4776 39.8897 12.6674ZM35.1907 11.9608C35.4317 11.6434 35.7226 11.4259 36.056 11.3177C36.9436 11.0255 38.1728 11.6985 38.4637 12.5974C38.4637 12.5974 38.4702 12.617 38.4748 12.6413C38.2726 12.8793 36.3082 15.1475 34.2533 17.5333C33.7028 16.878 33.097 16.289 32.4366 15.7635L35.1907 11.9608ZM32.6657 8.37461C32.6934 8.37461 32.71 8.37368 32.71 8.37368C33.6474 8.37368 34.6587 9.34816 34.6587 10.2937C34.6587 10.6465 34.5451 10.9938 34.3234 11.3214L31.5943 15.1437C30.898 14.6733 30.1518 14.271 29.3695 13.9462C30.9774 11.2309 32.5068 8.64343 32.6657 8.37461ZM28.482 4.66521C28.7812 4.56161 29.0887 4.50187 29.4092 4.50187C30.2099 4.50187 30.9442 4.80243 31.4743 5.34288C31.9167 5.79465 32.1679 6.3883 32.2002 7.02489C31.6553 7.94617 29.8673 10.9611 28.3277 13.5597C27.8281 13.4029 27.3137 13.2788 26.7909 13.1836C27.4356 9.93062 28.2317 5.92439 28.482 4.66521ZM24.4978 1.46546C26.0105 1.48133 27.3349 2.59396 27.5344 3.92782C27.3774 4.71562 26.4982 9.13908 25.7261 13.0324C25.3225 12.995 24.9134 12.9736 24.4996 12.9736C24.0886 12.9736 23.6813 12.9932 23.2805 13.0324C22.5112 9.15495 21.6338 4.74735 21.4694 3.91195C21.6846 2.57716 23.009 1.48133 24.4978 1.46546ZM17.5203 5.34288C18.0495 4.80336 18.7819 4.50187 19.5854 4.50187C19.9031 4.50187 20.2143 4.56161 20.5117 4.66521C20.762 5.92439 21.5572 9.93062 22.2027 13.1845C21.6809 13.2806 21.1674 13.4048 20.6659 13.5625C19.1255 10.9611 17.3393 7.94711 16.7916 7.02489C16.8258 6.38737 17.077 5.79465 17.5203 5.34288ZM16.2883 8.37274C16.2883 8.37274 16.3068 8.37368 16.3317 8.37368C16.4915 8.6425 18.0209 11.2299 19.6288 13.9452C18.8465 14.2701 18.1012 14.6724 17.404 15.1428L14.6767 11.3205C14.4523 10.9919 14.3396 10.6447 14.3396 10.2928C14.3405 9.34816 15.3518 8.37274 16.2883 8.37274ZM10.5346 12.5974C10.8255 11.6957 12.0538 11.0236 12.9432 11.3177C13.2775 11.4259 13.5666 11.6416 13.8067 11.958L16.5608 15.7635C15.9032 16.2853 15.2946 16.8771 14.7469 17.5305C12.6892 15.1447 10.7276 12.8774 10.5226 12.6413C10.53 12.6161 10.5346 12.5974 10.5346 12.5974ZM5.87248 14.5734C6.11999 13.8034 6.62702 13.1929 7.30029 12.8475C7.86366 12.5656 8.49906 12.504 9.10768 12.6721C9.80681 13.4804 12.0917 16.1294 14.0625 18.4135C13.7605 18.8447 13.4835 19.3002 13.2323 19.7763C10.372 18.1484 6.84682 16.1453 5.73856 15.5162C5.73302 15.1969 5.77365 14.8815 5.87248 14.5734ZM1.49576 18.3603C1.9797 16.906 3.43522 15.9782 4.75128 16.2004C5.44672 16.5943 9.3358 18.8055 12.7613 20.7517C12.6006 21.1279 12.4546 21.5143 12.3263 21.9101C12.1997 22.3077 12.0935 22.7035 12.0067 23.1011C8.11948 22.6447 3.70213 22.1238 2.86262 22.0258C1.67308 21.4023 1.05245 19.794 1.49576 18.3603ZM13.6008 32.6957C10.7202 33.9362 7.97725 35.1226 7.69372 35.2449C7.67156 35.229 7.65493 35.2159 7.65493 35.2159C6.89947 34.6615 6.64549 33.2726 7.19593 32.5072C7.40188 32.2225 7.69464 32.0078 8.06684 31.8771L12.4962 30.4042C12.7871 31.1994 13.1556 31.9658 13.6008 32.6957ZM4.34677 27.4798C3.75754 27.2539 3.27914 26.8283 2.98914 26.2617C2.64373 25.5859 2.58924 24.7878 2.83583 24.0168C2.93558 23.7134 3.08519 23.4334 3.27544 23.1777C4.53794 23.327 8.55447 23.7984 11.8165 24.1848C11.7435 24.7159 11.7038 25.247 11.6982 25.7754C8.77335 26.4568 5.38207 27.2408 4.34677 27.4798ZM6.66304 30.8503C5.77366 30.5572 5.17058 29.2831 5.45965 28.3815C5.45965 28.3815 5.46611 28.3637 5.47535 28.3404C5.77735 28.2685 8.68469 27.5983 11.7352 26.8908C11.7998 27.7467 11.9495 28.5859 12.1748 29.4007L7.73528 30.8429C7.3557 30.9567 6.99644 30.9586 6.66304 30.8503ZM8.9202 40.7315C8.62004 40.6372 8.33374 40.5 8.07607 40.3124C7.42774 39.8354 7.00845 39.1587 6.893 38.4063C6.79972 37.7763 6.9401 37.15 7.28459 36.6133C8.26171 36.1932 11.4609 34.8127 14.2195 33.6263C14.5317 34.0501 14.8753 34.458 15.2438 34.8444C12.8287 37.0912 9.85668 39.8587 8.9202 40.7315ZM14.1577 45.5068C13.2046 46.4589 11.5006 46.5569 10.2861 45.687C9.06981 44.7732 8.64313 43.0893 9.25914 41.8889C9.84375 41.3447 13.1279 38.2887 16.0168 35.5968C16.3206 35.8693 16.6393 36.1288 16.9736 36.3752C17.307 36.6189 17.6487 36.8438 17.995 37.051C16.3631 40.6456 14.5095 44.7321 14.1577 45.5068ZM19.7507 45.7663C19.3536 46.261 18.8041 46.5905 18.1844 46.6932C17.4409 46.8192 16.6734 46.6213 16.0251 46.1472C15.7674 45.9586 15.5504 45.7271 15.3694 45.4648C15.8995 44.2971 17.585 40.5831 18.9564 37.5663C19.4348 37.8015 19.9206 38.004 20.4194 38.1739C20.1524 41.1945 19.8431 44.6966 19.7507 45.7663ZM23.9603 43.5467C23.9492 43.9471 23.8402 44.2943 23.6342 44.5781C23.0857 45.3435 21.6994 45.5302 20.9421 44.9748C20.9421 44.9748 20.9264 44.9636 20.9061 44.9459C20.9338 44.636 21.2007 41.6341 21.4796 38.481C22.3025 38.6845 23.1392 38.8012 23.975 38.8357L23.9603 43.5467ZM24.4996 37.3777C18.2352 37.3777 13.1556 32.2449 13.1556 25.9126C13.1556 19.5784 18.2352 14.4474 24.4996 14.4474C30.7668 14.4474 35.8445 19.5784 35.8445 25.9126C35.8445 32.2449 30.7659 37.3777 24.4996 37.3777ZM36.4975 30.407L40.9287 31.8771C41.3009 32.0115 41.5946 32.2234 41.7987 32.5072C42.351 33.2726 42.097 34.6643 41.3378 35.2159C41.3378 35.2159 41.324 35.229 41.3018 35.2449C41.0174 35.1226 38.2726 33.9362 35.3938 32.6976C35.839 31.9686 36.2075 31.1994 36.4975 30.407ZM28.0544 44.9757C27.2961 45.533 25.9099 45.3472 25.3604 44.58C25.1553 44.2953 25.0454 43.948 25.0344 43.5485L25.0187 38.8376C25.8563 38.8012 26.6931 38.6845 27.5159 38.482C27.793 41.6332 28.0627 44.636 28.0885 44.9505C28.0691 44.9645 28.0544 44.9757 28.0544 44.9757ZM32.9769 46.1444C32.3276 46.6223 31.562 46.8155 30.8176 46.6923C30.1961 46.5868 29.6475 46.2582 29.2513 45.7617C29.1552 44.6938 28.8477 41.1935 28.5817 38.1739C29.0786 38.004 29.5662 37.7996 30.0465 37.5672C31.4143 40.5821 33.0997 44.2953 33.6299 45.462C33.4507 45.7253 33.2327 45.9567 32.9769 46.1444ZM38.7168 45.6833C37.4811 46.5719 35.7633 46.458 34.8259 45.4938C34.4943 44.7657 32.6333 40.6643 30.994 37.0557C31.3441 36.8475 31.6858 36.6217 32.021 36.3752C32.3535 36.1316 32.6694 35.8712 32.9732 35.6033C35.8519 38.2831 39.1231 41.327 39.7438 41.9067C40.345 43.1145 39.91 44.7872 38.7168 45.6833ZM42.1053 38.4035C41.9935 39.1549 41.5724 39.8317 40.9232 40.3096C40.6673 40.5 40.382 40.6335 40.079 40.7277C39.1453 39.8569 36.1706 37.0884 33.7564 34.8407C34.123 34.4533 34.4666 34.0473 34.7778 33.6217C37.5383 34.8118 40.7384 36.1895 41.7146 36.6095C42.061 37.1462 42.1995 37.7735 42.1053 38.4035ZM42.3334 30.8513C42.0019 30.9586 41.6417 30.9586 41.2621 30.8447L36.8207 29.4045C37.0488 28.5896 37.1975 27.7495 37.2603 26.8955C40.3127 27.6011 43.2191 28.2722 43.5239 28.3432C43.5322 28.3656 43.5377 28.3852 43.5377 28.3852C43.8277 29.2841 43.2237 30.5591 42.3334 30.8513ZM46.0073 26.2579C45.7173 26.8245 45.2389 27.2492 44.6488 27.476C43.6135 27.238 40.2249 26.4521 37.3019 25.7735C37.2954 25.2452 37.2539 24.7113 37.1818 24.1773C40.4429 23.7965 44.4576 23.3214 45.721 23.173C45.9113 23.4287 46.0609 23.7078 46.1597 24.014C46.4091 24.7869 46.3527 25.5812 46.0073 26.2579ZM46.1209 22.0333C45.3322 22.1276 40.8973 22.6503 36.9944 23.1086C36.9057 22.7072 36.8013 22.3096 36.673 21.9129C36.5474 21.5171 36.3996 21.1325 36.2398 20.7573C39.6496 18.8186 43.5257 16.6148 44.2609 16.1976C45.5862 15.995 47.0241 16.9284 47.4988 18.3519C47.9532 19.8155 47.316 21.4322 46.1209 22.0333Z" fill="#D0AC67" fill-opacity="0.2"/>
<path d="M30.2694 22.9238C30.4052 22.9238 30.5622 22.9023 30.6749 22.9023C30.6915 22.9023 30.7063 22.9032 30.7183 22.9042C30.7451 22.906 30.794 22.92 30.8014 22.92C30.8014 22.92 30.8014 22.92 30.8023 22.92C30.8023 22.9191 30.8033 22.9191 30.8088 22.9172C30.8143 22.9154 30.8208 22.9116 30.8273 22.9079C30.8411 22.9014 30.8559 22.8939 30.8633 22.8892C30.8698 22.8883 30.8568 22.8883 30.879 22.8846C30.8808 22.8846 30.8855 22.8836 30.8892 22.8836C30.9206 22.8846 30.9723 22.8902 31.0323 22.8939L31.0443 22.8948L31.0508 22.9014C31.0619 22.9014 31.0794 22.8995 31.1025 22.8976C31.1136 22.8976 31.1237 22.8976 31.1348 22.8976C31.1884 22.8976 31.2373 22.893 31.2632 22.8836C31.2623 22.8827 31.2817 22.8724 31.3075 22.8463C31.3315 22.822 31.3611 22.7856 31.3805 22.7343L31.3796 22.7324L31.386 22.7193C31.4405 22.6083 31.4664 22.4374 31.4664 22.2545C31.4664 22.0342 31.4294 21.8307 31.3509 21.7281C31.3509 21.7281 31.3509 21.7281 31.3426 21.7187C31.3232 21.687 31.2789 21.6506 31.2244 21.6216C31.0988 21.6076 30.9741 21.5955 30.8596 21.5927C30.7589 21.5918 30.6407 21.5862 30.5253 21.5862C30.4292 21.5862 30.335 21.5899 30.2556 21.6048H30.2519H30.2482C30.1577 21.5992 30.0681 21.5964 29.9878 21.5974C29.8899 21.5964 29.8049 21.6002 29.7421 21.602C29.6775 21.6058 29.6387 21.6086 29.6424 21.6086C29.5325 21.6366 29.3976 21.645 29.2637 21.645C29.0531 21.645 28.8499 21.6226 28.7751 21.6132L28.7437 21.6095V21.5068L28.7474 21.4984C28.7631 21.4695 28.7705 21.4368 28.7761 21.406C28.7761 21.4023 28.7761 21.3976 28.7761 21.3939C28.777 21.3229 28.7548 21.2417 28.7437 21.1531V20.8936C28.7465 20.8394 28.7484 20.7816 28.7484 20.733C28.7484 20.6817 28.7447 20.6369 28.7391 20.6238C28.7197 20.5547 28.7262 20.4885 28.7003 20.4595C28.6385 20.4259 28.6338 20.4054 28.5849 20.3774C28.5535 20.3597 28.5202 20.3373 28.4898 20.3158C28.4888 20.3121 28.4436 20.3037 28.3937 20.3018C28.3448 20.299 28.2884 20.2981 28.2386 20.2859C28.2293 20.2878 28.2201 20.2887 28.2099 20.2887C28.1859 20.2887 28.1601 20.285 28.137 20.285L28.1407 20.2915L28.0779 20.2897C28.0354 20.2869 27.9947 20.2841 27.9523 20.2841C27.6835 20.2841 27.4351 20.3214 27.3076 20.4026C27.1691 20.4894 27.1626 20.6425 27.1626 20.6658H27.1589L27.1626 20.6696V21.6095H26.5485C26.4275 21.6048 26.3083 21.5927 26.192 21.5927C26.1855 21.5927 26.1809 21.5927 26.1763 21.5936L25.9481 21.5974C25.9444 21.5974 25.9445 21.5974 25.9445 21.5974C25.9251 21.5974 25.8955 21.5964 25.8715 21.5964C25.8595 21.5964 25.8475 21.5964 25.8345 21.5974L25.8327 21.5964C25.8115 21.5964 25.7671 21.6067 25.7256 21.6067C25.7034 21.6067 25.6794 21.6058 25.6563 21.588H25.6554C25.6517 21.588 25.6471 21.5871 25.6415 21.5871C25.6304 21.5871 25.6175 21.588 25.6092 21.588C25.588 21.5908 25.5686 21.5918 25.551 21.5918C25.5335 21.5918 25.5178 21.5908 25.5039 21.5908C25.4827 21.5908 25.4624 21.5918 25.4383 21.5992C25.4051 21.6058 25.3792 21.6076 25.3552 21.6076C25.3414 21.6076 25.3275 21.6067 25.3137 21.6067C25.3026 21.6067 25.2897 21.6067 25.2749 21.6095C25.2019 21.616 25.1751 21.6132 25.1142 21.6188C25.08 21.6226 25.0375 21.6235 24.9895 21.6235C24.887 21.6235 24.7697 21.617 24.7106 21.6095C24.694 21.6058 24.6773 21.6048 24.6635 21.6048C24.6201 21.6048 24.5822 21.6142 24.537 21.6328C24.5259 21.6366 24.5157 21.6403 24.5046 21.6459C24.4991 21.6468 24.4963 21.6496 24.4917 21.6506C24.4825 21.6534 24.4732 21.6599 24.4585 21.673C24.4363 21.6888 24.4169 21.7066 24.3984 21.729C24.3199 21.8307 24.283 22.0342 24.283 22.2554C24.283 22.4496 24.3116 22.6288 24.3716 22.7399C24.379 22.7529 24.3984 22.7856 24.3993 22.7847C24.4594 22.85 24.4289 22.8491 24.5249 22.8995C24.5656 22.9182 24.5887 22.921 24.6182 22.921C24.6376 22.921 24.6607 22.9191 24.6903 22.9191C24.7013 22.9191 24.7143 22.92 24.7263 22.92C24.7318 22.92 24.7374 22.92 24.7438 22.92C24.8343 22.92 25.0218 22.8967 25.1437 22.8958C25.1724 22.8958 25.1973 22.8967 25.2195 22.9014C25.2232 22.9014 25.2305 22.9023 25.2379 22.9023C25.286 22.9023 25.3774 22.8808 25.4383 22.8706H25.442L25.9509 22.907L25.8983 22.963C25.8447 23.0171 25.7948 23.075 25.744 23.1356C25.588 23.2906 25.4411 23.4819 25.4199 23.5426C25.334 23.7526 25.3451 23.874 25.2619 24.0569C25.1982 24.1941 25.1317 24.3528 25.1317 24.519H25.1299L25.1317 24.5255C25.1317 24.5302 25.1317 24.533 25.1317 24.5367C25.1326 24.6608 25.1465 24.7178 25.1761 24.8363L25.177 24.8391V24.8429C25.1834 24.9717 25.1982 25.0958 25.2222 25.2218C25.2269 25.2732 25.2324 25.317 25.2416 25.374C25.2499 25.458 25.2361 25.5943 25.2619 25.6428C25.3478 25.8416 25.4402 26.0544 25.5436 26.2383C25.6009 26.3522 25.7117 26.4325 25.8512 26.5295C25.9759 26.6257 26.0756 26.7685 26.1763 26.8077C26.3 26.8628 26.3342 26.9234 26.445 26.9505C26.4838 26.9617 26.5226 26.9664 26.5632 26.9692H26.5697L26.5762 26.9729C26.7498 27.0597 26.9382 27.1288 27.1368 27.1801L27.1635 27.1867V27.9698L27.1876 28.3021L27.1848 28.3908L27.1488 28.3889C27.1192 28.388 27.0878 28.3861 27.0583 28.3861C27.0204 28.3861 26.9862 28.387 26.9622 28.3889C26.929 28.3945 26.8929 28.4066 26.8505 28.4085C26.8421 28.4085 26.8348 28.4094 26.8255 28.4094C26.6842 28.4085 26.4229 28.3525 26.2815 28.3534C26.2686 28.3534 26.2566 28.3544 26.2455 28.3544C26.1624 28.3618 26.0959 28.3721 26.023 28.3721C25.974 28.3721 25.9223 28.3674 25.8623 28.3534C25.8364 28.3469 25.8115 28.345 25.7856 28.345C25.7431 28.345 25.6979 28.3516 25.6471 28.3516C25.6277 28.3516 25.6083 28.3506 25.587 28.3478C25.4217 28.3264 25.2592 28.3236 25.0855 28.3142L24.7531 28.3012C24.7318 28.3002 24.7097 28.2993 24.6903 28.2993C24.5693 28.2993 24.4769 28.332 24.4086 28.3964L24.4049 28.3992L24.4012 28.402C24.3698 28.4188 24.3402 28.4421 24.3153 28.4757C24.2368 28.5775 24.1999 28.7809 24.1999 29.0012C24.1999 29.2215 24.2368 29.425 24.3153 29.5286C24.3984 29.6406 24.5536 29.649 24.5776 29.6481C24.5804 29.6481 24.5831 29.6481 24.5813 29.6481H24.5951L24.5998 29.65C24.6496 29.6658 24.7032 29.6742 24.7623 29.6742C24.7715 29.6742 24.7817 29.6733 24.7928 29.6733L24.8057 29.6724L24.8159 29.6808C24.8556 29.7134 24.9091 29.7256 24.9692 29.7256C25.044 29.7256 25.1253 29.7069 25.1964 29.6957C25.382 29.6677 25.5713 29.6313 25.7653 29.6313C25.8733 29.6313 25.9814 29.6425 26.0904 29.6752C26.1051 29.6789 26.1245 29.6808 26.1476 29.6808C26.2012 29.6808 26.2677 29.6696 26.3213 29.6668C26.5078 29.664 26.627 29.5912 26.7978 29.5902C26.8532 29.5902 26.9133 29.5986 26.9825 29.621C26.9853 29.621 26.989 29.622 26.9936 29.622C27.0361 29.622 27.1303 29.6089 27.1876 29.6089C27.2033 29.6089 27.2162 29.6089 27.2263 29.6117C27.2328 29.6136 27.2411 29.6145 27.2513 29.6145C27.2882 29.6145 27.3409 29.6052 27.3843 29.6052C27.3972 29.6042 27.4101 29.6042 27.424 29.6042C27.4812 29.6042 27.5367 29.6061 27.5921 29.6061C27.6309 29.6061 27.6687 29.6052 27.7066 29.6014C27.7509 29.5949 27.7953 29.593 27.8405 29.593C28.016 29.593 28.1878 29.6294 28.3568 29.6294C28.3605 29.6294 28.3651 29.6294 28.3642 29.6304C28.3651 29.6304 28.366 29.6294 28.3706 29.6294C28.4288 29.6313 28.5424 29.649 28.6061 29.6817C28.6061 29.6817 28.6061 29.6817 28.6071 29.6817C28.608 29.6817 28.6107 29.6817 28.6135 29.6817C28.6209 29.6826 28.6329 29.6836 28.6458 29.6836C28.6569 29.6836 28.6689 29.6826 28.6819 29.6826C28.6911 29.6836 28.6994 29.6836 28.7068 29.6836C28.7206 29.6826 28.7317 29.6826 28.7474 29.6892C28.9109 29.6854 29.0097 29.6696 29.1833 29.6696C29.344 29.6696 29.4456 29.6378 29.5962 29.6378C29.61 29.6378 29.6267 29.6378 29.6433 29.6388H29.6451C29.6968 29.6472 29.6987 29.6686 29.7162 29.6649C29.7162 29.6649 29.7199 29.6649 29.7181 29.6658C29.7763 29.6612 29.8594 29.6602 29.9508 29.6593C30.215 29.6602 30.5336 29.6705 30.5613 29.6752C30.5613 29.6761 30.5622 29.6761 30.5631 29.6761C30.565 29.6761 30.5687 29.6761 30.5761 29.6845V29.6836C30.5908 29.6976 30.6075 29.7022 30.6333 29.7022C30.7091 29.7041 30.8254 29.6378 30.9316 29.636C30.9381 29.636 30.9436 29.636 30.9473 29.6369C31.0184 29.6425 31.7499 29.6892 32.1581 29.6892C32.1738 29.6892 32.1895 29.6892 32.2061 29.6892L32.2412 29.6901V31.3814L32.2403 31.3833C32.2403 31.4066 32.2468 31.5588 32.3862 31.6465C32.5137 31.7277 32.7621 31.766 33.0309 31.7651C33.2996 31.766 33.549 31.7277 33.6764 31.6465C33.815 31.5597 33.8196 31.4066 33.8196 31.3833V31.3796L33.8205 31.2564L33.8159 31.2246L33.8085 31.0202C33.7993 30.939 33.778 30.855 33.7697 30.7663C33.7614 30.7084 33.7466 30.6356 33.7365 30.5759C33.7346 30.5647 33.7328 30.5516 33.7328 30.5367C33.7337 30.4322 33.7697 30.1951 33.7697 30.0924C33.7697 30.0737 33.7679 30.0597 33.7669 30.0597C33.7642 30.0523 33.7651 30.0485 33.7651 30.0448C33.766 30.0047 33.8168 29.7778 33.8224 29.7377C33.8224 29.7321 33.8233 29.7274 33.826 29.7209C33.8307 29.7078 33.8325 29.6892 33.8325 29.6649C33.8325 29.5249 33.7559 29.2691 33.7365 29.1674C33.7254 29.1104 33.7226 29.0787 33.7226 29.047C33.7226 29.0134 33.7254 28.9826 33.7263 28.9191V28.9023C33.7263 28.851 33.7226 28.7632 33.7226 28.6941C33.7226 28.6661 33.7235 28.6409 33.7254 28.6223C33.7309 28.5588 33.7291 28.5103 33.7614 28.4496C33.791 28.3842 33.7873 28.4104 33.791 28.3544V28.3506C33.7919 28.3133 33.7669 28.261 33.7651 28.2013C33.7651 28.1976 33.7651 28.1938 33.7651 28.1938C33.766 28.0491 33.7688 27.9017 33.7688 27.7551C33.7688 27.5918 33.7651 27.4294 33.7494 27.2688L33.7457 25.0473C33.7448 24.9857 33.7439 24.9231 33.7439 24.8606C33.7439 24.687 33.7494 24.5152 33.7586 24.3594C33.7605 24.2856 33.7928 24.2147 33.7919 24.1643C33.7919 24.1615 33.7919 24.1577 33.7919 24.1559C33.791 24.1381 33.79 24.1185 33.79 24.0971C33.79 23.9757 33.8103 23.7937 33.8103 23.663C33.8103 23.6481 33.8103 23.6341 33.8094 23.6238C33.8002 23.5249 33.7845 23.4474 33.7845 23.3559C33.7845 23.3242 33.7854 23.2897 33.791 23.2533C33.8011 23.1776 33.8048 23.1048 33.8048 23.0302C33.8048 22.9919 33.8039 22.9527 33.803 22.9144L33.7771 22.5868C33.7771 22.5859 33.7771 22.5831 33.7771 22.5784C33.7771 22.5383 33.7826 22.4991 33.7937 22.4645L33.8325 21.2548L33.8187 21.0971V20.6686C33.8187 20.6453 33.8131 20.4913 33.6755 20.4054C33.5481 20.3242 33.2987 20.2869 33.0299 20.2869C32.7612 20.2869 32.5128 20.3242 32.3853 20.4054C32.2468 20.4922 32.2394 20.6444 32.2394 20.6686C32.2394 20.6686 32.2394 20.6686 32.2403 20.6724V21.9231L32.2699 22.864C32.2643 22.9536 32.2588 23.0134 32.2588 23.0563C32.2588 23.0638 32.2588 23.0694 32.2597 23.0778C32.2606 23.1487 32.268 23.186 32.268 23.2374C32.268 23.2486 32.268 23.2607 32.2671 23.2757C32.2606 23.3494 32.2625 23.4362 32.2569 23.5146C32.2458 23.6724 32.2486 23.7853 32.2458 23.944C32.2449 23.9533 32.2449 23.9617 32.2449 23.9701C32.244 24.084 32.268 24.1559 32.268 24.28C32.268 24.2987 32.268 24.3183 32.2671 24.3388C32.2579 24.519 32.2458 24.5208 32.2311 24.5806C32.2154 24.6571 32.2098 24.729 32.2098 24.8046C32.2098 24.9371 32.2283 25.0781 32.2486 25.2517C32.2579 25.3385 32.2902 25.416 32.2902 25.5168C32.2902 25.5215 32.2902 25.5261 32.2902 25.5317C32.2865 25.6316 32.2652 25.7193 32.2652 25.8099C32.2652 25.8967 32.2689 25.9826 32.2689 26.0703C32.2689 26.1272 32.2671 26.1851 32.2616 26.2439C32.2579 26.2813 32.256 26.3186 32.256 26.3541C32.256 26.4493 32.2652 26.5426 32.2671 26.6462L32.2412 27.5563L32.2385 28.3217L31.398 28.3562L30.4542 28.3273C30.4486 28.3282 30.4431 28.3282 30.4385 28.3282C30.3738 28.3273 30.3184 28.303 30.2805 28.3049C30.2759 28.3049 30.2722 28.3049 30.2704 28.3058C30.2491 28.3096 30.2297 28.3105 30.2122 28.3105C30.1734 28.3105 30.1392 28.3049 30.1078 28.3058C30.1041 28.3058 30.0995 28.3058 30.0967 28.3058C30.0062 28.3133 29.9536 28.3273 29.9065 28.3712L29.8954 28.3805H29.8816L29.7661 28.3796L29.7606 28.3777C29.7218 28.3637 29.6775 28.3581 29.6294 28.3581C29.514 28.3581 29.3828 28.3898 29.2628 28.3898C29.2545 28.3898 29.2443 28.3898 29.2369 28.3898C29.2138 28.3889 29.1972 28.3814 29.1907 28.3796L29.1935 28.3758H29.1824C29.1769 28.3758 29.1732 28.3749 29.1713 28.3749H29.164L29.1575 28.3721C29.1224 28.3553 29.0642 28.3441 28.9986 28.3441C28.9598 28.3441 28.9238 28.3478 28.8934 28.3544L28.8878 28.3553L28.7437 28.3413V28.0379L28.7133 27.4732L28.7207 27.1829L28.7465 27.1773C28.9866 27.1185 29.2129 27.0364 29.4198 26.943L29.4253 26.9346L29.4373 26.9309C29.4382 26.9309 29.4429 26.9281 29.453 26.9244C29.4927 26.916 29.5629 26.8954 29.5703 26.8777C29.6036 26.8273 29.6839 26.7284 29.7209 26.6957C29.7652 26.6537 29.8788 26.5613 29.9527 26.5379C30.1919 26.4642 30.2796 26.1823 30.4412 25.9387C30.6075 25.6811 30.6296 25.4515 30.7312 25.1453C30.7617 25.0463 30.7746 24.9847 30.7746 24.9325C30.7746 24.8839 30.7635 24.8401 30.7386 24.7775L30.7349 24.7691L30.7358 24.7607C30.7368 24.7486 30.7386 24.7393 30.7386 24.7309C30.7395 24.6963 30.7285 24.5927 30.7238 24.588L30.7201 24.5796L30.7211 24.5712C30.722 24.5572 30.722 24.5404 30.722 24.5227C30.7229 24.3902 30.6961 24.1633 30.685 24.1185L30.6749 24.1101L30.6804 24.0887C30.6841 24.0775 30.686 24.0607 30.686 24.042C30.686 23.9617 30.6527 23.8441 30.6315 23.7797C30.5881 23.6808 30.6028 23.6854 30.5687 23.6052C30.5105 23.4838 30.4966 23.4455 30.4745 23.3643C30.4569 23.3055 30.2482 23.0638 30.0847 22.9742L30.0062 22.921L30.2694 22.9238ZM28.5849 25.6895C28.4713 25.7305 28.3993 25.7875 28.2764 25.8229C28.2302 25.8332 28.1527 25.8397 28.1379 25.8575C28.1111 25.878 28.0816 25.879 28.0557 25.8799C28.0335 25.8799 28.0132 25.8771 27.9947 25.8771C27.9726 25.8771 27.9559 25.8808 27.9486 25.8864L27.9393 25.8939H27.919C27.8497 25.8939 27.7306 25.8836 27.7297 25.8836L27.726 25.8827L27.5948 25.8388L27.5893 25.8341C27.5782 25.8173 27.4388 25.7931 27.3954 25.7828C27.3252 25.7632 27.2901 25.7165 27.2199 25.6811C27.2079 25.6745 27.1931 25.6727 27.1737 25.6727H27.1534C27.1192 25.6745 27.0647 25.6652 27.0379 25.6101L27.0342 25.6036V25.6027C27.0305 25.5999 27.0259 25.5952 27.0195 25.5896C27.0056 25.5793 26.9862 25.5644 26.9631 25.5485C26.9188 25.5159 26.8726 25.4869 26.8477 25.4487C26.7045 25.2032 26.7563 24.9875 26.6519 24.7561C26.639 24.7281 26.6343 24.7066 26.6353 24.687C26.6353 24.6636 26.639 24.6506 26.639 24.6272C26.639 24.6188 26.639 24.6086 26.638 24.5964C26.6362 24.5731 26.6343 24.5526 26.6343 24.5348C26.6334 24.4546 26.6584 24.4154 26.6898 24.3528C26.7064 24.3099 26.7175 24.252 26.7322 24.1717C26.7442 24.0859 26.7701 23.9533 26.8209 23.8749C26.9003 23.7526 26.9945 23.6901 27.0703 23.5968C27.1719 23.4745 27.315 23.4213 27.4295 23.3466C27.4785 23.3177 27.4886 23.2981 27.5524 23.2869C27.6105 23.2729 27.6927 23.2514 27.7712 23.2449C27.8553 23.2411 27.9439 23.2206 28.0372 23.2206C28.0834 23.2206 28.1305 23.2253 28.1794 23.2402C28.4796 23.3326 28.6588 23.3149 28.9146 23.608C29.0125 23.7218 29.1048 23.8842 29.1898 23.9991C29.2415 24.0812 29.236 24.2128 29.2554 24.28C29.2886 24.3696 29.3108 24.42 29.3136 24.5162C29.3145 24.532 29.3145 24.5488 29.3145 24.5628C29.3136 24.6552 29.2886 24.6954 29.2729 24.7981C29.2526 24.9157 29.2074 25.0314 29.1575 25.1341C29.1242 25.2041 29.0614 25.318 28.9857 25.3777C28.9589 25.3936 28.9423 25.4393 28.8998 25.4748C28.8786 25.4944 28.8463 25.5392 28.8185 25.5691C28.728 25.6727 28.6532 25.6904 28.5849 25.6895Z" fill="#D0AC67" fill-opacity="0.2"/>
<path d="M23.0667 23.8581C23.1904 23.7918 23.2449 23.7041 23.2458 23.5809C23.2458 23.5576 23.244 23.5314 23.2394 23.5053L23.1664 23.3419V23.0936C23.1756 23.0339 23.1849 22.9742 23.1978 22.9266C23.2024 22.9116 23.2052 22.8771 23.2052 22.8332C23.2052 22.6717 23.1701 22.3861 23.1701 22.22C23.1701 22.1733 23.172 22.1369 23.1812 22.1098C23.195 22.0613 23.1886 22.0043 23.2034 21.9409C23.2126 21.8905 23.2227 21.7682 23.2348 21.6674C23.2357 21.6562 23.2366 21.6459 23.2366 21.6356C23.2366 21.574 23.2163 21.5208 23.2163 21.4471C23.2163 21.4452 23.2163 21.4424 23.2163 21.4406C23.2181 21.4116 23.2246 21.3846 23.232 21.364C23.2329 21.3575 23.2338 21.3538 23.2338 21.3519C23.2301 21.3463 23.2218 21.3379 23.2126 21.3239L23.2107 21.3211L23.1313 21.1223L23.1332 21.1111C23.1332 21.1101 23.1332 21.1092 23.1332 21.1083C23.1406 21.0971 23.0851 21.0476 23.0279 21.0093L23.0242 21.0065L23.0205 21.0009C23.002 20.9748 22.9817 20.9496 22.9605 20.9253L22.9558 20.9197L22.954 20.9132L22.9521 20.9085L22.9512 20.9067C22.9475 20.9029 22.9383 20.8954 22.9235 20.8852C22.9069 20.8693 22.8903 20.8534 22.8709 20.8357L22.8736 20.8385C22.7351 20.7228 22.5559 20.6528 22.3611 20.6528H22.0905L22.0868 20.6518C21.9981 20.6322 21.831 20.6136 21.7054 20.6136C21.6721 20.6136 21.6416 20.6145 21.6167 20.6182L21.1808 20.65C21.1623 20.6518 21.1457 20.6518 21.1272 20.6528H20.852C20.671 20.6444 20.4844 20.6238 20.3145 20.6238C20.2831 20.6238 20.2526 20.6248 20.2221 20.6266C19.946 20.6406 19.5479 20.6761 19.2441 20.6761C19.209 20.6761 19.1757 20.6752 19.1434 20.6752C19.0483 20.6686 18.9135 20.6434 18.8091 20.6434C18.7795 20.6434 18.7528 20.6453 18.7306 20.65C18.6835 20.6565 18.6318 20.6929 18.5579 20.7032C18.5089 20.7116 18.4683 20.7134 18.4267 20.7134L18.2079 20.6845L18.2014 20.6798C18.1995 20.6798 18.1949 20.6789 18.1903 20.6752C18.1247 20.6462 18.0804 20.607 18.0425 20.6089C18.0342 20.6098 18.0268 20.6098 18.0176 20.6126C17.8514 20.6574 17.795 20.6248 17.6602 20.6593C17.5669 20.6854 17.505 20.6948 17.4496 20.6938C17.3554 20.6938 17.2945 20.6677 17.1328 20.6621C17.0765 20.6584 17.0202 20.6584 16.9638 20.6584C16.8105 20.6584 16.6572 20.6668 16.5021 20.6668C16.4226 20.6668 16.3423 20.664 16.2647 20.6584L16.1613 20.6556L16.1566 20.6537C16.1557 20.6537 16.153 20.6537 16.152 20.6528H15.7013H15.6995C15.6755 20.6518 15.5212 20.6593 15.4381 20.7722C15.3596 20.874 15.3218 21.0775 15.3227 21.2987C15.3218 21.519 15.3587 21.7225 15.4381 21.8261C15.5 21.9082 15.597 21.9334 15.6561 21.9409L15.6644 21.9418H15.6653C15.6718 21.9427 15.6764 21.9427 15.6801 21.9437C15.8833 21.9595 16.1677 22.0221 16.3977 22.0221C16.4734 22.0221 16.5436 22.0155 16.6018 21.9978C16.8549 21.9315 17.1014 21.9315 17.372 21.9194C17.4164 21.9185 17.4552 21.9166 17.4903 21.9166C17.6722 21.9166 17.7368 21.939 17.916 21.9381C17.9483 21.9381 17.9853 21.9371 18.0278 21.9371C18.1044 21.9325 18.1266 21.9306 18.1487 21.9306C18.1691 21.9306 18.1848 21.9315 18.2365 21.9353C18.243 21.9362 18.2522 21.9362 18.2623 21.9362C18.2937 21.9362 18.3372 21.9315 18.3778 21.9315C18.399 21.9315 18.4203 21.9325 18.4406 21.9371L18.4544 21.9409L18.4563 21.9446C18.4572 21.9446 18.4572 21.9446 18.4581 21.9446C18.4692 21.9455 18.484 21.9455 18.5025 21.9455C18.5985 21.9455 18.7629 21.9297 18.7851 21.9297C18.8488 21.9287 18.9005 21.9269 18.955 21.9269C18.9984 21.9269 19.0437 21.9278 19.0991 21.9325C19.161 21.9399 19.2275 21.953 19.2875 21.953C19.3133 21.953 19.3411 21.9502 19.3651 21.9446C19.3762 21.9418 19.3863 21.9409 19.3974 21.9409C19.475 21.9446 19.5332 21.9969 19.5627 21.9922C19.5636 21.9922 19.5682 21.9913 19.5701 21.9913C19.6338 21.9801 19.6735 21.9745 19.704 21.9745C19.7539 21.9754 19.7677 21.9847 19.7973 21.9847C19.8038 21.9838 19.8102 21.9838 19.8176 21.9838C19.9681 21.9707 20.1325 21.9427 20.3117 21.9427C20.3209 21.9427 20.333 21.9427 20.3431 21.9427C20.4124 21.9437 20.4835 21.9446 20.5555 21.9446C20.7264 21.9446 20.9102 21.9399 21.1069 21.9259H21.1106L21.3729 21.9623C21.4292 21.9689 21.4791 21.9913 21.5188 22.0193L21.5345 22.0286L21.5354 22.0473C21.5437 22.2694 21.5419 22.6185 21.5437 22.6979C21.5447 22.7165 21.5724 22.7856 21.5742 22.8416C21.5742 22.8538 21.5724 22.8659 21.5668 22.879C21.5557 22.9004 21.5677 22.9182 21.5326 22.977C21.5142 23.004 21.504 23.0731 21.5049 23.1291C21.5049 23.145 21.5059 23.1609 21.5068 23.1721C21.5151 23.2486 21.5225 23.3167 21.5225 23.397C21.5225 23.4082 21.5225 23.4185 21.5225 23.4306C21.5206 23.4558 21.5188 23.4763 21.5188 23.4931C21.5197 23.5389 21.5243 23.5548 21.5585 23.6061C21.5964 23.6724 21.5696 23.7125 21.5871 23.7312C21.6038 23.7592 21.6241 23.8049 21.6361 23.8208C21.6481 23.8385 21.6869 23.86 21.7284 23.8777C21.8568 23.958 22.1034 23.9963 22.3712 23.9944C22.6391 23.9953 22.8866 23.958 23.014 23.8777C23.0149 23.8768 23.0177 23.8749 23.0205 23.873L23.0565 23.8478L23.0667 23.8581Z" fill="#D0AC67" fill-opacity="0.2"/>
<path d="M23.9819 24.7654L23.9791 24.7644C23.9625 24.7626 23.9487 24.7616 23.9404 24.7616H23.9237L23.1147 24.7084C23.1101 24.7094 23.1045 24.7094 23.0999 24.7094C23.0353 24.7084 22.9799 24.686 22.942 24.686C22.9374 24.686 22.9337 24.686 22.9318 24.687C22.9106 24.6907 22.8912 24.6916 22.8736 24.6916C22.8349 24.6907 22.8016 24.686 22.7693 24.687C22.7647 24.687 22.7619 24.687 22.7582 24.687C22.6677 24.6944 22.6151 24.7084 22.567 24.7523L22.5569 24.7616H22.543L22.4276 24.7607L22.422 24.7598C22.3832 24.7448 22.338 24.7392 22.29 24.7392C22.1754 24.7392 22.0434 24.771 21.9242 24.771C21.915 24.771 21.9058 24.771 21.8984 24.771C21.8744 24.77 21.8568 24.7626 21.8504 24.7607H21.8467C21.842 24.7607 21.8254 24.7654 21.8106 24.7691C21.7922 24.7728 21.7931 24.7756 21.7746 24.7775C21.7709 24.7775 21.7691 24.7775 21.7682 24.7775C21.7072 24.7756 21.6333 24.7383 21.5908 24.7402C21.5798 24.7402 21.5733 24.743 21.5714 24.7439L21.5622 24.7504L20.8686 24.7607H19.8776H19.233L19.2256 24.757C19.1176 24.7038 18.762 24.6907 18.6253 24.6888C18.557 24.6851 18.4923 24.6842 18.4277 24.6842C18.1774 24.6842 17.952 24.7075 17.6611 24.7318C17.5411 24.7383 17.2317 24.7327 17.1227 24.757C16.9943 24.7859 17.0119 24.7747 16.9038 24.8279C16.8484 24.8568 16.7985 24.868 16.7523 24.868C16.6212 24.8652 16.5418 24.7859 16.4023 24.7738C16.2619 24.7551 16.1539 24.7187 16.0274 24.7187C15.9609 24.7196 15.8879 24.729 15.8011 24.7579L15.7946 24.7598L15.4104 24.7504C15.403 24.7514 15.3947 24.7514 15.3873 24.7514C15.2414 24.7504 15.1056 24.6898 14.9865 24.6702C14.9523 24.6646 14.9256 24.6618 14.9015 24.6618C14.8166 24.6608 14.7778 24.6963 14.6633 24.7318C14.6143 24.7476 14.5654 24.7523 14.5173 24.7523C14.4111 24.7523 14.3123 24.7271 14.2606 24.728C14.244 24.7271 14.2366 24.7299 14.2366 24.7299L14.2283 24.7374L14.219 24.7383C14.1747 24.7458 14.1516 24.7542 14.135 24.7635L14.1304 24.7672L14.1239 24.7682C14.0657 24.7794 13.9854 24.8083 13.9309 24.8792C13.8524 24.9819 13.8154 25.1854 13.8154 25.4066C13.8145 25.6269 13.8524 25.8304 13.9309 25.9331C14.014 26.0451 14.1692 26.0526 14.1932 26.0526C14.1959 26.0526 14.1987 26.0526 14.1969 26.0526H14.2403L14.2467 26.0544C14.2634 26.0628 14.292 26.0666 14.3252 26.0666C14.3927 26.0666 14.4758 26.0507 14.5312 26.0451C14.5718 26.0395 14.6097 26.0386 14.6466 26.0386C14.7279 26.0386 14.8027 26.047 14.896 26.0526L16.0643 26.0442L16.0735 26.0526H18.2208L18.2199 26.089C18.2189 26.0927 18.2189 26.0974 18.2189 26.0992C18.2189 26.1879 18.2282 26.3046 18.2365 26.3643C18.2383 26.3755 18.2383 26.3886 18.2383 26.4007C18.2383 26.5006 18.1986 26.6789 18.1995 26.7657C18.1995 26.775 18.1996 26.7806 18.2005 26.7881C18.2079 26.8609 18.2328 27.0102 18.2328 27.0868C18.2337 27.1082 18.2328 27.1176 18.23 27.126C18.2282 27.1306 18.2263 27.1381 18.2199 27.1839C18.2134 27.2277 18.2032 27.3463 18.2005 27.4228L18.1995 27.4564L18.1672 27.4573C18.1663 27.4583 18.1635 27.4583 18.1608 27.4583C18.1386 27.4592 18.1155 27.4704 18.0878 27.4881L18.0795 27.4928H17.6528C17.5549 27.4788 17.457 27.4741 17.3563 27.4741C17.2908 27.4741 17.2252 27.4751 17.1596 27.4751C17.1051 27.4751 17.0497 27.4741 16.9943 27.4713C16.8863 27.4676 16.7108 27.4648 16.5325 27.4648C16.334 27.4648 16.1308 27.4685 16.0163 27.4751C16.0117 27.4751 16.007 27.4751 16.0024 27.4751C15.8768 27.4741 15.7669 27.4237 15.6626 27.4247C15.6589 27.4247 15.6542 27.4247 15.6478 27.4256C15.6062 27.4265 15.5647 27.4536 15.5065 27.4751L15.4991 27.4779H15.4917C15.4723 27.4751 15.4529 27.4741 15.4354 27.4741C15.3467 27.4741 15.2756 27.4956 15.2156 27.5432C15.1878 27.561 15.1611 27.5824 15.1398 27.6114C15.0613 27.714 15.0235 27.9175 15.0235 28.1387C15.0235 28.3441 15.0558 28.5326 15.1241 28.6409C15.1297 28.6512 15.1352 28.6605 15.1398 28.6652C15.2229 28.7772 15.3772 28.7847 15.4012 28.7847C15.404 28.7847 15.4058 28.7847 15.4049 28.7847H15.4474L15.4529 28.7856L15.4557 28.7875C15.4603 28.7884 15.464 28.7884 15.4705 28.7893C15.4788 28.7893 15.4917 28.7875 15.512 28.7847H15.5305C15.5619 28.7884 15.5813 28.8024 15.5859 28.8043C15.5877 28.8043 15.5933 28.8033 15.6016 28.8005C15.6173 28.794 15.6348 28.7903 15.6524 28.7856H15.6552H15.9239C15.9378 28.7781 15.9516 28.7725 15.9636 28.7669L15.971 28.7632H15.9793C16.2158 28.7688 16.5972 28.7819 16.7745 28.7949C16.8502 28.8015 16.926 28.8052 17.0026 28.8043C17.2815 28.8052 17.5614 28.7688 17.8458 28.7688C17.9899 28.7688 18.1358 28.7791 18.2854 28.8071C18.3538 28.8211 18.4332 28.8472 18.4979 28.8463C18.5108 28.8463 18.5228 28.8453 18.5366 28.8425C18.6272 28.8323 18.7094 28.7725 18.822 28.7567C18.8756 28.752 18.9393 28.7501 19.0012 28.7501C19.0492 28.7501 19.0954 28.7511 19.1388 28.752C19.2672 28.7632 19.4112 28.7623 19.5415 28.7903C19.6541 28.8145 19.7437 28.8407 19.8352 28.8407C19.8592 28.8407 19.885 28.8379 19.9109 28.8341C19.9423 28.8285 19.9783 28.8276 20.0189 28.8276C20.127 28.8276 20.2655 28.8379 20.3948 28.8379C20.5722 28.8407 20.7273 28.8117 20.7587 28.7436L20.7753 28.7119L20.8067 28.7287C20.9009 28.7828 21.0653 28.7856 21.2205 28.7949C21.3636 28.8061 21.5068 28.8211 21.5825 28.9219L21.6065 28.9172V28.9611C21.6065 29.0161 21.6056 29.0787 21.6047 29.1459V29.173C21.601 29.5193 21.5955 29.9766 21.5955 30.3145C21.5955 30.5199 21.5973 30.6832 21.6047 30.7439L21.6185 31.0155L21.613 31.0239C21.6121 31.0249 21.6093 31.0314 21.6093 31.0426C21.6093 31.0687 21.6195 31.1079 21.6204 31.1443C21.6204 31.1518 21.6195 31.1574 21.6195 31.1639C21.6158 31.1947 21.6139 31.2218 21.6139 31.2461C21.6139 31.2825 21.6167 31.3133 21.6167 31.346C21.6176 31.3945 21.6093 31.4458 21.5779 31.5084C21.5733 31.5392 21.5714 31.5681 21.5714 31.5961C21.5714 31.6502 21.5798 31.6979 21.5973 31.7464C21.6121 31.8052 21.6453 31.8789 21.7303 31.9321C21.8577 32.0133 22.1062 32.0516 22.3749 32.0516C22.6067 32.0516 22.8219 32.0245 22.9586 31.9639L22.99 31.9499C23.1359 31.8855 23.1987 31.7977 23.1997 31.6717C23.1997 31.6418 23.196 31.6101 23.1886 31.5746C23.1581 31.3954 23.1452 31.3021 23.123 31.1061C23.1165 31.0491 23.1147 30.967 23.1147 30.8736C23.1147 30.631 23.1304 30.3127 23.1304 30.2063C23.1313 30.0392 23.1415 29.0964 23.1636 28.9321C23.1673 28.9069 23.1683 28.8799 23.1683 28.85C23.1683 28.7455 23.1498 28.6204 23.1498 28.4944C23.1498 28.4477 23.1526 28.4001 23.159 28.36V28.3516L23.1627 28.345C23.1812 28.3012 23.1895 28.2554 23.1895 28.2069C23.1904 28.0697 23.1156 27.9138 22.9919 27.756C22.9309 27.6758 22.9152 27.6571 22.9023 27.6515C22.8875 27.6431 22.8487 27.6366 22.748 27.5955C22.7129 27.575 22.6769 27.5591 22.6354 27.5442C22.6326 27.5432 22.6308 27.5432 22.6271 27.5404L22.6169 27.5376C22.616 27.5376 22.6141 27.5367 22.6132 27.5358L22.6095 27.5348C22.531 27.5087 22.447 27.4947 22.3602 27.4947H19.9441L19.9358 27.4732C19.8776 27.336 19.8869 27.0961 19.8841 27.0476C19.8841 26.9141 19.8924 26.8908 19.9026 26.7797C19.9044 26.7517 19.9063 26.7237 19.9063 26.6947C19.9063 26.5678 19.886 26.4269 19.886 26.298C19.886 26.2178 19.8933 26.1422 19.9229 26.0759L19.9321 26.0544H21.7654C21.7718 26.0535 21.7774 26.0507 21.7811 26.0507L21.7848 26.0498H21.7903C21.8014 26.0498 21.8162 26.0488 21.8291 26.0488C21.8291 26.0488 21.8328 26.0488 21.8347 26.0488C21.8347 26.0488 22.084 26.0591 22.1043 26.0591C22.1126 26.06 22.12 26.06 22.1283 26.06C22.1893 26.06 22.2475 26.0516 22.3121 26.0516C22.3408 26.0516 22.3703 26.0526 22.4045 26.06C22.4174 26.0628 22.4285 26.0638 22.4396 26.0638C22.4802 26.0647 22.5181 26.0423 22.579 26.0404C22.5957 26.0404 22.6141 26.0432 22.6326 26.0488C22.6603 26.0563 22.6852 26.0619 22.7074 26.0619C22.7222 26.0619 22.736 26.06 22.7536 26.0526C22.7702 26.047 22.7887 26.0442 22.8072 26.0442C22.8709 26.0451 22.9448 26.0647 22.9854 26.0638C22.9872 26.0638 22.9909 26.0638 22.9909 26.0638C23.1036 26.0572 23.2089 26.0498 23.3234 26.0479C23.3973 26.0442 23.461 26.0404 23.5238 26.0404C23.582 26.0404 23.6393 26.0432 23.703 26.0526C23.7436 26.0582 23.7935 26.0628 23.8434 26.0628C23.8988 26.0638 23.9514 26.0554 23.9791 26.0404C24.0521 25.9947 24.1315 26.004 24.1454 25.9732C24.2276 25.8584 24.2248 25.8239 24.2931 25.7268C24.2978 25.7203 24.2996 25.7081 24.2996 25.6904C24.2996 25.6764 24.2987 25.6596 24.2987 25.6409C24.2987 25.6381 24.2987 25.6362 24.2996 25.6325C24.3015 25.6166 24.3033 25.6036 24.3052 25.5877C24.3116 25.5308 24.3135 25.4729 24.3135 25.4122C24.3144 25.1919 24.2765 24.9885 24.198 24.8848C24.1371 24.7999 24.0419 24.7728 23.9819 24.7654Z" fill="#D0AC67" fill-opacity="0.2"/>
</svg>
