<svg width="99" height="100" viewBox="0 0 99 100" fill="none" xmlns="http://www.w3.org/2000/svg">
<g clip-path="url(#clip0_9_1497)">
<path d="M26 3.71997H25.81H6.39999V5.12997C6.39999 5.12997 24.22 5.12997 24.59 5.12997C24.59 5.45997 24.59 9.02997 24.59 9.36997C24.22 9.36997 6.39999 9.36997 6.39999 9.36997V10.78H26V3.71997Z" fill="#F4EDE5"/>
<path d="M28.31 10.78H37.48V5.13H36.07C36.07 5.13 36.07 9.02 36.07 9.37C35.72 9.37 30.07 9.37 29.72 9.37C29.72 9.01 29.72 0 29.72 0H29.53H6.39999V1.41C6.39999 1.41 27.94 1.41 28.31 1.41C28.31 1.78 28.31 10.78 28.31 10.78Z" fill="#F4EDE5"/>
<path d="M48.91 9.37C48.91 9.37 41.56 9.37 41.2 9.37C41.2 9.02 41.2 5.13 41.2 5.13H41.01H39.79V10.78H48.91V9.37Z" fill="#F4EDE5"/>
<path d="M52.43 9.37H51.21V30.55H48.77H28.31V31.97H51.21H51.52H52.62V9.37H52.43Z" fill="#F4EDE5"/>
<path d="M16.52 13.09H16.33H6.39999V14.5C6.39999 14.5 14.75 14.5 15.12 14.5C15.12 14.81 15.12 17.16 15.12 17.47C14.76 17.47 6.39999 17.47 6.39999 17.47V18.88H16.52V13.09Z" fill="#F4EDE5"/>
<path d="M25.99 21.19H25.8H6.39999V22.6C6.39999 22.6 24.22 22.6 24.59 22.6C24.59 22.96 24.59 28.24 24.59 28.24H26V22.03V21.19H25.99Z" fill="#F4EDE5"/>
<path d="M35.96 14.5C35.61 15.02 35.4 15.64 35.4 16.32C35.4 18.1 36.85 19.54 38.62 19.54C40.4 19.54 41.85 18.09 41.85 16.32C41.85 15.64 41.64 15.02 41.29 14.5C40.71 13.65 39.73 13.09 38.62 13.09C37.52 13.09 36.54 13.65 35.96 14.5ZM38.62 14.54C39.6 14.54 40.39 15.33 40.39 16.31C40.39 17.29 39.6 18.08 38.62 18.08C37.64 18.08 36.85 17.29 36.85 16.31C36.85 15.34 37.64 14.54 38.62 14.54Z" fill="#F4EDE5"/>
<path d="M37.48 28.25V26.46V25.37V21.66L37.34 21.62C37 21.54 36.66 21.42 36.34 21.28C34.4 20.38 33.14 18.44 33.14 16.31C33.14 15.67 33.26 15.06 33.46 14.49C33.64 13.98 33.89 13.5 34.21 13.08H32.5H18.83V18.87C18.83 18.87 27.95 18.87 28.31 18.87C28.31 19.24 28.31 28.24 28.31 28.24H37.48V28.25ZM20.24 17.47C20.24 17.15 20.24 14.81 20.24 14.5C20.51 14.5 27.89 14.5 31.93 14.5C31.77 15.08 31.69 15.69 31.69 16.32C31.69 19.14 33.44 21.7 36.06 22.75C36.06 22.88 36.06 24.32 36.06 25.37C36.06 25.52 36.06 26.05 36.06 26.45C36.06 26.61 36.06 26.74 36.06 26.83C35.71 26.83 30.06 26.83 29.71 26.83C29.71 26.47 29.71 17.47 29.71 17.47C29.71 17.47 20.61 17.47 20.24 17.47Z" fill="#F4EDE5"/>
<path d="M40.93 21.27C40.61 21.42 40.28 21.54 39.93 21.62L39.78 21.65V25.36V26.46V28.25H48.9V13.09H48.71H44.74H43.03C43.34 13.51 43.6 13.99 43.77 14.5C43.97 15.07 44.09 15.68 44.09 16.32C44.1 18.43 42.85 20.37 40.93 21.27ZM45.55 16.32C45.55 15.69 45.47 15.08 45.31 14.5C46.35 14.5 47.33 14.5 47.49 14.5C47.49 14.86 47.49 26.47 47.49 26.84C47.14 26.84 41.54 26.84 41.2 26.84C41.2 26.75 41.2 26.61 41.2 26.46C41.2 26.06 41.2 25.51 41.2 25.37C41.2 24.31 41.2 22.88 41.2 22.74C43.8 21.69 45.55 19.13 45.55 16.32Z" fill="#F4EDE5"/>
<path d="M48.87 34.28H48.68H29.27V35.69C29.27 35.69 47.08 35.69 47.46 35.69C47.46 36.02 47.46 39.59 47.46 39.93C47.08 39.93 29.27 39.93 29.27 39.93V41.34H48.87V34.28Z" fill="#F4EDE5"/>
<path d="M51.17 41.34H60.35V35.69H58.94C58.94 35.69 58.94 39.59 58.94 39.93C58.59 39.93 52.94 39.93 52.59 39.93C52.59 39.57 52.59 30.56 52.59 30.56H52.4H29.27V31.98C29.27 31.98 50.81 31.98 51.17 31.98C51.17 32.33 51.17 41.34 51.17 41.34Z" fill="#F4EDE5"/>
<path d="M71.77 39.92C71.77 39.92 64.42 39.92 64.06 39.92C64.06 39.57 64.06 35.68 64.06 35.68H63.87H62.65V41.33H71.77V39.92Z" fill="#F4EDE5"/>
<path d="M75.3 39.92H74.08V61.11H71.63H51.18V62.52H74.08H74.39H75.49V39.92H75.3Z" fill="#F4EDE5"/>
<path d="M39.39 43.64H39.2H29.27V45.05C29.27 45.05 37.62 45.05 37.98 45.05C37.98 45.37 37.98 47.7 37.98 48.02C37.61 48.02 29.27 48.02 29.27 48.02V49.43H39.4L39.39 43.64Z" fill="#F4EDE5"/>
<path d="M48.87 51.74H48.68H29.28V53.15C29.28 53.15 47.09 53.15 47.47 53.15C47.47 53.52 47.47 58.79 47.47 58.79H48.88V52.58V51.74H48.87Z" fill="#F4EDE5"/>
<path d="M58.83 45.06C58.48 45.58 58.27 46.2 58.27 46.88C58.27 48.65 59.72 50.1 61.5 50.1C63.28 50.1 64.72 48.65 64.72 46.88C64.72 46.21 64.51 45.58 64.16 45.06C63.57 44.21 62.6 43.65 61.5 43.65C60.38 43.64 59.41 44.2 58.83 45.06ZM61.49 45.1C62.47 45.1 63.26 45.89 63.26 46.88C63.26 47.85 62.47 48.65 61.49 48.65C60.51 48.65 59.71 47.85 59.71 46.88C59.72 45.89 60.51 45.1 61.49 45.1Z" fill="#F4EDE5"/>
<path d="M60.35 58.8V57.01V55.92V52.21L60.2 52.18C59.86 52.09 59.53 51.98 59.2 51.83C57.27 50.93 56.01 48.98 56.01 46.86C56.01 46.22 56.13 45.61 56.33 45.04C56.51 44.53 56.76 44.06 57.08 43.63H55.36H41.7V49.43C41.7 49.43 50.81 49.43 51.18 49.43C51.18 49.79 51.18 58.79 51.18 58.79H60.35V58.8ZM43.11 48.03C43.11 47.71 43.11 45.37 43.11 45.06C43.38 45.06 50.76 45.06 54.81 45.06C54.65 45.64 54.57 46.25 54.57 46.88C54.57 49.7 56.33 52.26 58.95 53.31C58.95 53.45 58.95 54.88 58.95 55.93C58.95 56.08 58.95 56.61 58.95 57.01C58.95 57.17 58.95 57.31 58.95 57.4C58.6 57.4 52.95 57.4 52.6 57.4C52.6 57.03 52.6 48.03 52.6 48.03C52.6 48.03 43.47 48.03 43.11 48.03Z" fill="#F4EDE5"/>
<path d="M63.8 51.83C63.48 51.97 63.15 52.09 62.8 52.18L62.66 52.22V55.92V57.02V58.81H71.78V43.64H71.59H67.62H65.9C66.22 44.07 66.46 44.54 66.64 45.05C66.84 45.62 66.96 46.23 66.96 46.87C66.97 48.98 65.72 50.93 63.8 51.83ZM68.42 46.87C68.42 46.24 68.33 45.63 68.17 45.05C69.21 45.05 70.2 45.05 70.35 45.05C70.35 45.41 70.35 57.02 70.35 57.39C70 57.39 64.41 57.39 64.06 57.39C64.06 57.3 64.06 57.16 64.06 57C64.06 56.59 64.06 56.05 64.06 55.91C64.06 54.86 64.06 53.42 64.06 53.29C66.67 52.24 68.42 49.68 68.42 46.87Z" fill="#F4EDE5"/>
<path d="M25.96 51.74H25.77H6.36V53.15C6.36 53.15 24.18 53.15 24.55 53.15C24.55 53.48 24.55 57.05 24.55 57.39C24.18 57.39 6.36 57.39 6.36 57.39V58.8H25.96V51.74Z" fill="#F4EDE5"/>
<path d="M28.27 58.8H37.44V53.14H36.04C36.04 53.14 36.04 57.04 36.04 57.39C35.69 57.39 30.03 57.39 29.69 57.39C29.69 57.02 29.69 48.02 29.69 48.02H29.49H6.36V49.43C6.36 49.43 27.9 49.43 28.27 49.43C28.27 49.79 28.27 58.8 28.27 58.8Z" fill="#F4EDE5"/>
<path d="M48.87 57.39C48.87 57.39 41.52 57.39 41.17 57.39C41.17 57.04 41.17 53.14 41.17 53.14H40.98H39.76V58.8H48.88V57.39H48.87Z" fill="#F4EDE5"/>
<path d="M52.4 57.39H51.17V78.58H48.73H28.27V79.99H51.17H51.49H52.59V57.39H52.4Z" fill="#F4EDE5"/>
<path d="M16.48 61.11H16.3H6.36V62.52C6.36 62.52 14.71 62.52 15.07 62.52C15.07 62.84 15.07 65.18 15.07 65.49C14.71 65.49 6.36 65.49 6.36 65.49V66.9H16.49L16.48 61.11Z" fill="#F4EDE5"/>
<path d="M25.96 69.21H25.78H6.36V70.62C6.36 70.62 24.18 70.62 24.55 70.62C24.55 70.98 24.55 76.26 24.55 76.26H25.96V70.04H25.95V69.21H25.96Z" fill="#F4EDE5"/>
<path d="M35.92 62.52C35.56 63.04 35.36 63.66 35.36 64.34C35.36 66.12 36.8 67.57 38.58 67.57C40.36 67.57 41.81 66.12 41.81 64.34C41.81 63.67 41.6 63.04 41.25 62.52C40.67 61.67 39.69 61.11 38.58 61.11C37.48 61.11 36.5 61.66 35.92 62.52ZM38.59 62.56C39.57 62.56 40.36 63.35 40.36 64.33C40.36 65.3 39.57 66.1 38.59 66.1C37.61 66.1 36.82 65.3 36.82 64.33C36.81 63.35 37.61 62.56 38.59 62.56Z" fill="#F4EDE5"/>
<path d="M37.44 76.27V74.48V73.39V69.68L37.3 69.65C36.96 69.57 36.62 69.45 36.31 69.3C34.37 68.4 33.12 66.45 33.12 64.33C33.12 63.69 33.23 63.08 33.44 62.51C33.62 62 33.87 61.53 34.19 61.1H32.47H18.8V66.89C18.8 66.89 27.91 66.89 28.27 66.89C28.27 67.26 28.27 76.26 28.27 76.26H37.44V76.27ZM20.21 65.49C20.21 65.17 20.21 62.83 20.21 62.52C20.48 62.52 27.86 62.52 31.91 62.52C31.75 63.1 31.66 63.71 31.66 64.34C31.66 67.16 33.42 69.72 36.04 70.77C36.04 70.9 36.04 72.34 36.04 73.39C36.04 73.53 36.04 74.07 36.04 74.47C36.04 74.63 36.04 74.77 36.04 74.86C35.69 74.86 30.03 74.86 29.69 74.86C29.69 74.49 29.69 65.49 29.69 65.49C29.69 65.49 20.57 65.49 20.21 65.49Z" fill="#F4EDE5"/>
<path d="M40.89 69.29C40.57 69.44 40.24 69.56 39.89 69.64L39.74 69.68V73.38V74.48V76.27H48.86V61.11H48.67H44.7H43C43.31 61.54 43.57 62.01 43.75 62.52C43.95 63.09 44.06 63.7 44.06 64.34C44.06 66.45 42.82 68.39 40.89 69.29ZM45.52 64.33C45.52 63.71 45.43 63.09 45.27 62.51C46.31 62.51 47.3 62.51 47.46 62.51C47.46 62.87 47.46 74.48 47.46 74.85C47.11 74.85 41.51 74.85 41.17 74.85C41.17 74.76 41.17 74.62 41.17 74.46C41.17 74.05 41.17 73.52 41.17 73.37C41.17 72.31 41.17 70.88 41.17 70.74C43.77 69.7 45.52 67.14 45.52 64.33Z" fill="#F4EDE5"/>
<path d="M71.91 64.83H71.72H52.32V66.24C52.32 66.24 70.13 66.24 70.5 66.24C70.5 66.57 70.5 70.14 70.5 70.48C70.13 70.48 52.32 70.48 52.32 70.48V71.89H71.91V64.83Z" fill="#F4EDE5"/>
<path d="M74.22 71.9H83.4V66.24H81.99C81.99 66.24 81.99 70.13 81.99 70.49C81.65 70.49 75.99 70.49 75.64 70.49C75.64 70.12 75.64 61.12 75.64 61.12H75.45H52.32V62.53C52.32 62.53 73.85 62.53 74.22 62.53C74.22 62.89 74.22 71.9 74.22 71.9Z" fill="#F4EDE5"/>
<path d="M94.81 70.49C94.81 70.49 87.47 70.49 87.11 70.49C87.11 70.14 87.11 66.24 87.11 66.24H86.92H85.7V71.9H94.81V70.49Z" fill="#F4EDE5"/>
<path d="M98.35 70.49H97.13V91.67H94.68H74.22V93.08H97.13H97.43H98.54V70.49H98.35Z" fill="#F4EDE5"/>
<path d="M62.43 74.2H62.24H52.32V75.61C52.32 75.61 60.67 75.61 61.03 75.61C61.03 75.93 61.03 78.26 61.03 78.58C60.67 78.58 52.32 78.58 52.32 78.58V80H62.44L62.43 74.2Z" fill="#F4EDE5"/>
<path d="M71.91 82.3H71.72H52.32V83.71C52.32 83.71 70.13 83.71 70.5 83.71C70.5 84.07 70.5 89.35 70.5 89.35H71.91V83.14V82.3Z" fill="#F4EDE5"/>
<path d="M81.87 75.61C81.52 76.13 81.31 76.75 81.31 77.42C81.31 79.2 82.76 80.65 84.54 80.65C86.32 80.65 87.76 79.2 87.76 77.42C87.76 76.75 87.55 76.12 87.2 75.61C86.62 74.76 85.64 74.2 84.53 74.2C83.43 74.2 82.45 74.76 81.87 75.61ZM84.54 75.66C85.51 75.66 86.31 76.45 86.31 77.43C86.31 78.41 85.52 79.2 84.54 79.2C83.56 79.2 82.77 78.41 82.77 77.43C82.77 76.45 83.56 75.66 84.54 75.66Z" fill="#F4EDE5"/>
<path d="M83.39 89.36V87.58V86.48V82.78L83.25 82.75C82.9 82.67 82.57 82.55 82.25 82.4C80.31 81.51 79.05 79.56 79.05 77.43C79.05 76.79 79.17 76.18 79.37 75.62C79.55 75.1 79.81 74.63 80.12 74.21H78.4H64.74V80C64.74 80 73.86 80 74.22 80C74.22 80.37 74.22 89.37 74.22 89.37H83.39V89.36ZM66.16 78.58C66.16 78.26 66.16 75.93 66.16 75.61C66.43 75.61 73.81 75.61 77.85 75.61C77.7 76.19 77.6 76.8 77.6 77.42C77.6 80.25 79.36 82.8 81.98 83.85C81.98 83.98 81.98 85.42 81.98 86.47C81.98 86.62 81.98 87.15 81.98 87.56C81.98 87.71 81.98 87.85 81.98 87.94C81.64 87.94 75.98 87.94 75.63 87.94C75.63 87.57 75.63 78.57 75.63 78.57C75.63 78.57 66.52 78.58 66.16 78.58Z" fill="#F4EDE5"/>
<path d="M86.84 82.38C86.53 82.53 86.19 82.65 85.85 82.73L85.71 82.77V86.47V87.57V89.35H94.82V74.2H94.63H90.66H88.95C89.26 74.63 89.52 75.1 89.69 75.61C89.89 76.18 90.01 76.79 90.01 77.42C90.01 79.54 88.77 81.49 86.84 82.38ZM91.46 77.43C91.46 76.81 91.38 76.19 91.22 75.62C92.27 75.62 93.25 75.62 93.41 75.62C93.41 75.98 93.41 87.59 93.41 87.96C93.06 87.96 87.46 87.96 87.12 87.96C87.12 87.87 87.12 87.73 87.12 87.58C87.12 87.17 87.12 86.64 87.12 86.49C87.12 85.44 87.12 84 87.12 83.87C89.72 82.8 91.46 80.24 91.46 77.43Z" fill="#F4EDE5"/>
<path d="M3.09 21.18H2.91H0V22.59C0.98 22.59 1.62 22.59 1.68 22.59C1.68 22.92 1.68 26.49 1.68 26.83C1.61 26.83 0.98 26.83 0 26.83V28.24H3.09V21.18Z" fill="#F4EDE5"/>
<path d="M5.4 28.24H14.58V22.59H13.17C13.17 22.59 13.17 26.49 13.17 26.83C12.82 26.83 7.17 26.83 6.82 26.83C6.82 26.47 6.82 17.46 6.82 17.46H6.62H0V18.87C3.03 18.87 5.29 18.87 5.4 18.87C5.4 19.24 5.4 28.24 5.4 28.24Z" fill="#F4EDE5"/>
<path d="M26 26.83C26 26.83 18.66 26.83 18.3 26.83C18.3 26.48 18.3 22.59 18.3 22.59H18.1H16.88V28.24H26V26.83Z" fill="#F4EDE5"/>
<path d="M28.31 26.83V48.02H25.86H5.41V49.43H28.31H28.62H29.72V26.83H29.53H28.31Z" fill="#F4EDE5"/>
<path d="M1.68 45.7H3.09V39.49V38.65H2.9H0V40.06C0.98 40.06 1.62 40.06 1.68 40.06C1.68 40.43 1.68 45.7 1.68 45.7Z" fill="#F4EDE5"/>
<path d="M18.94 33.77C18.94 33.1 18.74 32.47 18.38 31.96C17.8 31.11 16.82 30.55 15.72 30.55C14.61 30.55 13.63 31.11 13.05 31.96C12.69 32.48 12.49 33.1 12.49 33.77C12.49 35.55 13.93 37 15.72 37C17.5 37 18.94 35.56 18.94 33.77ZM13.94 33.77C13.94 32.8 14.73 32 15.72 32C16.69 32 17.49 32.79 17.49 33.77C17.49 34.75 16.7 35.55 15.72 35.55C14.74 35.55 13.94 34.75 13.94 33.77Z" fill="#F4EDE5"/>
<path d="M5.41 45.71H14.58V43.92V42.83V39.12L14.43 39.09C14.09 39.01 13.75 38.89 13.43 38.74C11.49 37.85 10.24 35.9 10.24 33.77C10.24 33.14 10.36 32.53 10.55 31.96C10.73 31.45 10.98 30.97 11.3 30.55H9.59H0V31.96C2.59 31.96 6.48 31.96 9.03 31.96C8.87 32.54 8.78 33.15 8.78 33.77C8.78 36.6 10.54 39.16 13.16 40.2C13.16 40.34 13.16 41.77 13.16 42.82C13.16 42.97 13.16 43.5 13.16 43.9C13.16 44.06 13.16 44.2 13.16 44.29C12.81 44.29 7.16 44.29 6.81 44.29C6.81 43.92 6.81 34.92 6.81 34.92C6.81 34.92 2.8 34.92 0 34.92V36.33C2.48 36.33 5.21 36.33 5.41 36.33C5.41 36.71 5.41 45.71 5.41 45.71Z" fill="#F4EDE5"/>
<path d="M18.02 38.73C17.71 38.88 17.37 39 17.02 39.08L16.88 39.12V42.82V43.92V45.71H26V30.55H25.81H21.84H20.12C20.44 30.98 20.69 31.45 20.87 31.96C21.07 32.53 21.18 33.14 21.18 33.77C21.19 35.89 19.95 37.83 18.02 38.73ZM22.65 33.77C22.65 33.15 22.56 32.54 22.4 31.96C23.44 31.96 24.43 31.96 24.58 31.96C24.58 32.33 24.58 43.93 24.58 44.3C24.24 44.3 18.64 44.3 18.29 44.3C18.29 44.21 18.29 44.08 18.29 43.91C18.29 43.5 18.29 42.97 18.29 42.82C18.29 41.77 18.29 40.33 18.29 40.19C20.9 39.15 22.65 36.59 22.65 33.77Z" fill="#F4EDE5"/>
<path d="M29.41 82.29V83.7C29.41 83.7 47.23 83.7 47.6 83.7C47.6 84.03 47.6 87.6 47.6 87.94C47.23 87.94 29.41 87.94 29.41 87.94V89.35H49V82.29H48.81H29.41Z" fill="#F4EDE5"/>
<path d="M60.48 83.7H59.07C59.07 83.7 59.07 87.6 59.07 87.94C58.72 87.94 53.07 87.94 52.72 87.94C52.72 87.58 52.72 78.57 52.72 78.57H52.53H29.41V79.98C29.41 79.98 50.95 79.98 51.32 79.98C51.32 80.35 51.32 89.35 51.32 89.35H60.49V83.7H60.48Z" fill="#F4EDE5"/>
<path d="M64.2 83.7H64.01H62.8V89.35H71.91V87.94C71.91 87.94 64.57 87.94 64.2 87.94C64.2 87.59 64.2 83.7 64.2 83.7Z" fill="#F4EDE5"/>
<path d="M75.44 87.94H74.22V99.7H75.63V87.94H75.44Z" fill="#F4EDE5"/>
<path d="M39.34 91.66H29.41V93.07C29.41 93.07 37.76 93.07 38.12 93.07C38.12 93.39 38.12 95.72 38.12 96.04C37.76 96.04 29.41 96.04 29.41 96.04V97.45H39.53V91.65H39.34V91.66Z" fill="#F4EDE5"/>
<path d="M56.15 94.89C56.15 94.25 56.26 93.64 56.47 93.07C56.65 92.56 56.9 92.09 57.22 91.66H55.5H41.84V97.46C41.84 97.46 50.95 97.46 51.32 97.46C51.32 97.57 51.32 98.49 51.32 99.7H52.73C52.73 97.75 52.73 96.05 52.73 96.05C52.73 96.05 43.62 96.05 43.26 96.05C43.26 95.73 43.26 93.39 43.26 93.08C43.53 93.08 50.91 93.08 54.95 93.08C54.79 93.66 54.7 94.27 54.7 94.9C54.7 96.73 55.45 98.44 56.68 99.71H59.06C57.29 98.75 56.15 96.9 56.15 94.89Z" fill="#F4EDE5"/>
<path d="M71.72 91.66H67.75H66.04C66.35 92.09 66.6 92.57 66.78 93.07C66.98 93.64 67.1 94.25 67.1 94.89C67.1 96.9 65.96 98.75 64.2 99.7H66.57C67.8 98.43 68.55 96.72 68.55 94.89C68.55 94.27 68.47 93.66 68.31 93.07C69.35 93.07 70.34 93.07 70.49 93.07C70.49 93.26 70.49 96.56 70.49 99.7H71.9V91.66H71.72Z" fill="#F4EDE5"/>
<path d="M61.63 91.66C60.52 91.66 59.55 92.22 58.97 93.07C58.62 93.59 58.41 94.22 58.41 94.89C58.41 96.67 59.86 98.12 61.63 98.12C63.41 98.12 64.86 96.68 64.86 94.89C64.86 94.22 64.65 93.59 64.3 93.07C63.71 92.22 62.74 91.66 61.63 91.66ZM61.63 96.67C60.66 96.67 59.86 95.87 59.86 94.9C59.86 93.92 60.66 93.13 61.63 93.13C62.61 93.13 63.4 93.92 63.4 94.9C63.4 95.87 62.61 96.67 61.63 96.67Z" fill="#F4EDE5"/>
</g>
<defs>
<clipPath id="clip0_9_1497">
<rect width="98.54" height="99.7" fill="white"/>
</clipPath>
</defs>
</svg>
