<svg width="14" height="19" viewBox="0 0 14 19" fill="none" xmlns="http://www.w3.org/2000/svg">
<path d="M10.9796 0.343251C8.24969 -0.114417 5.44789 -0.114417 2.71794 0.343251C1.72059 0.510453 0.926329 1.27612 0.726356 2.26889C-0.189764 6.81698 -0.23975 11.4971 0.579019 16.0637L0.91237 17.9229C1.01516 18.4962 1.71406 18.7253 2.13632 18.3242L6.16004 14.5017C6.546 14.135 7.15157 14.135 7.53754 14.5017L11.5613 18.3242C11.9835 18.7253 12.6824 18.4962 12.7852 17.9229L13.1186 16.0637C13.9373 11.4971 13.8873 6.81698 12.9712 2.26889C12.7712 1.27612 11.977 0.510453 10.9796 0.343251Z" fill="#FF5050"/>
</svg>
