<svg width="30" height="30" viewBox="0 0 30 30" fill="none" xmlns="http://www.w3.org/2000/svg">
<path fill-rule="evenodd" clip-rule="evenodd" d="M23.4378 13.1251L23.4296 13.4286L23.4378 13.7501L23.4301 14.0541L23.4378 14.3751L23.4304 14.6812L23.4377 15.0001L23.2348 23.8788C23.1866 25.9854 21.5844 27.73 19.4895 27.9569C16.5052 28.28 13.4948 28.28 10.5105 27.9569C8.41559 27.73 6.81338 25.9854 6.76522 23.8788L6.56225 15.0001L6.56958 14.6791L6.56227 14.3751L6.56996 14.0554L6.56221 13.7501L6.57034 13.43L6.56213 13.1251L6.76714 5.50267C6.77 5.39632 6.77748 5.29107 6.78938 5.18713L6.79404 5.14318L6.79774 5.10776C6.8985 4.07763 7.46935 3.17918 8.30126 2.64002C8.36332 2.59874 8.42684 2.55943 8.49173 2.52218C8.55521 2.48462 8.62 2.44899 8.68603 2.41538C9.09428 2.19993 9.54989 2.06028 10.0349 2.01564C13.338 1.71158 16.662 1.71158 19.9651 2.01564C20.4493 2.06021 20.9042 2.19948 21.312 2.41435C21.378 2.44791 21.4428 2.48349 21.5063 2.52101C21.5732 2.55937 21.6387 2.59992 21.7027 2.64257C22.5301 3.18053 23.0985 4.07431 23.2014 5.09926L23.2111 5.19213C23.2227 5.29445 23.23 5.39802 23.2328 5.50267L23.4378 13.1251ZM21.3428 5.40094L21.539 13.9843L21.38 19.8971C21.3442 21.2263 20.3204 22.3188 18.9963 22.4407C16.3377 22.6855 13.6622 22.6855 11.0037 22.4407C9.67958 22.3188 8.6557 21.2263 8.61995 19.8971L8.46094 13.985L8.65718 5.40094C8.6576 5.38247 8.65837 5.36408 8.65948 5.34578C8.73383 4.84293 9.02525 4.40888 9.43843 4.1453C9.59496 4.0637 9.76863 4.00958 9.95338 3.98958C13.308 3.62629 16.692 3.62629 20.0466 3.98958C20.2313 4.00958 20.4049 4.06365 20.5614 4.1452C20.9747 4.40884 21.2663 4.84311 21.3405 5.3462C21.3416 5.36436 21.3424 5.38261 21.3428 5.40094ZM15 27.1251C16.0355 27.1251 16.875 26.2856 16.875 25.2501C16.875 24.2146 16.0355 23.3751 15 23.3751C13.9645 23.3751 13.125 24.2146 13.125 25.2501C13.125 26.2856 13.9645 27.1251 15 27.1251Z" fill="black"/>
</svg>
