<svg width="18" height="18" viewBox="0 0 18 18" fill="none" xmlns="http://www.w3.org/2000/svg">
<path fill-rule="evenodd" clip-rule="evenodd" d="M15.0104 17.1317C15.5962 17.7175 16.546 17.7175 17.1318 17.1317C17.7176 16.5459 17.7176 15.5962 17.1318 15.0104L11.1214 8.99997L17.1318 2.98958C17.7175 2.4038 17.7175 1.45405 17.1318 0.868263C16.546 0.282477 15.5962 0.282477 15.0104 0.868263L9.00005 6.87865L2.98963 0.868234C2.40385 0.282448 1.4541 0.282447 0.868314 0.868234C0.282528 1.45402 0.282528 2.40377 0.868314 2.98955L6.87873 8.99997L0.868295 15.0104C0.282509 15.5962 0.282508 16.5459 0.868295 17.1317C1.45408 17.7175 2.40383 17.7175 2.98962 17.1317L9.00005 11.1213L15.0104 17.1317Z" fill="black"/>
</svg>
