<svg width="16" height="16" viewBox="0 0 16 16" fill="none" xmlns="http://www.w3.org/2000/svg">
<path fill-rule="evenodd" clip-rule="evenodd" d="M2.0185 4.19576C1.88925 4.3298 1.859 4.53096 1.94312 4.69709L2.36902 5.5382C3.33751 7.45085 5.29923 8.65638 7.4431 8.65638L7.67869 8.65638C7.69351 8.97917 7.71268 9.3018 7.73618 9.6242L7.77611 10.1719C7.80836 10.6144 8.30173 10.8617 8.67557 10.6229C9.90974 9.83426 10.9827 8.81813 11.8371 7.62862L12.1056 7.25493C12.2151 7.1024 12.2151 6.89696 12.1056 6.74443L11.8371 6.37074C10.9826 5.18124 9.90974 4.1651 8.67557 3.3765C8.30173 3.13762 7.80836 3.38497 7.77611 3.82744L7.73618 4.37517C7.70813 4.75991 7.68626 5.14499 7.67057 5.53026C6.40347 5.5674 5.13781 5.31192 3.97472 4.77511L2.51677 4.10221C2.3477 4.02418 2.14776 4.06172 2.0185 4.19576ZM3.30816 5.43117L3.60804 5.56958C5.02651 6.22425 6.58287 6.50064 8.12723 6.38202C8.35024 6.36489 8.52442 6.18231 8.53103 5.95874C8.54602 5.45172 8.57197 4.94495 8.60887 4.43878L8.61256 4.38805C9.58253 5.07272 10.4325 5.9151 11.1265 6.88123L11.2116 6.99968L11.1265 7.11813C10.4325 8.08426 9.58253 8.92664 8.61256 9.61131L8.60887 9.56058C8.57593 9.10876 8.55172 8.65645 8.53624 8.20393C8.52818 7.96826 8.3348 7.78138 8.099 7.78138L7.4431 7.78138C5.73927 7.78138 4.1714 6.88149 3.30816 5.43117Z" fill="#474747"/>
</svg>
