<svg width="18" height="20" viewBox="0 0 18 20" fill="none" xmlns="http://www.w3.org/2000/svg">
<path fill-rule="evenodd" clip-rule="evenodd" d="M8.19868 0.587157C8.69702 0.310303 9.30297 0.310303 9.80131 0.587157L17.0013 4.58716C17.5251 4.87817 17.85 5.43029 17.85 6.02952V13.9704C17.85 14.5696 17.5251 15.1217 17.0013 15.4128L9.80131 19.4128C9.30297 19.6896 8.69702 19.6896 8.19868 19.4128L0.998682 15.4128C0.474864 15.1217 0.149994 14.5696 0.149994 13.9704V6.02952C0.149994 5.43029 0.474865 4.87817 0.998683 4.58716L8.19868 0.587157ZM9.07284 1.89839C9.02754 1.87322 8.97245 1.87322 8.92715 1.89839L1.72715 5.89839C1.67953 5.92485 1.64999 5.97504 1.64999 6.02952V13.9704C1.64999 14.0249 1.67953 14.0751 1.72715 14.1015L8.92715 18.1015C8.97245 18.1267 9.02754 18.1267 9.07284 18.1015L16.2728 14.1015C16.3205 14.0751 16.35 14.0249 16.35 13.9704V6.02952C16.35 5.97504 16.3205 5.92485 16.2728 5.89839L9.07284 1.89839Z" fill="black"/>
<path fill-rule="evenodd" clip-rule="evenodd" d="M4.24999 9.99995C4.24999 7.3766 6.37664 5.24995 8.99999 5.24995C11.6233 5.24995 13.75 7.3766 13.75 9.99995C13.75 12.6233 11.6233 14.75 8.99999 14.75C6.37664 14.75 4.24999 12.6233 4.24999 9.99995ZM8.99999 6.74995C7.20507 6.74995 5.74999 8.20503 5.74999 9.99995C5.74999 11.7949 7.20507 13.25 8.99999 13.25C10.7949 13.25 12.25 11.7949 12.25 9.99995C12.25 8.20503 10.7949 6.74995 8.99999 6.74995Z" fill="black"/>
</svg>
