<svg width="18" height="20" viewBox="0 0 18 20" fill="none" xmlns="http://www.w3.org/2000/svg">
<path fill-rule="evenodd" clip-rule="evenodd" d="M10.5139 17.875C10.7078 17.875 10.8868 17.7709 10.9828 17.6024L14.8865 10.7503C15.4039 9.84203 15.6211 8.79343 15.5069 7.75433L15.0949 4.00504C15.0216 3.33796 14.4979 2.80957 13.8315 2.7303L11.3616 2.43649C9.73112 2.24253 8.07791 2.41065 6.51985 2.92888C5.75039 3.18481 5.13407 3.76884 4.83714 4.52342L2.84904 9.57575C2.80043 9.69928 2.76684 9.82819 2.74898 9.95973C2.5982 11.0705 3.57059 12.0075 4.67503 11.8157L8.66014 11.1236C9.91897 10.9049 11.0062 12.0158 10.7605 13.2696L9.98421 17.2315C9.91889 17.5649 10.1741 17.875 10.5139 17.875ZM12.5034 18.4687C12.0961 19.1836 11.3366 19.625 10.5139 19.625C9.0726 19.625 7.98973 18.3094 8.26687 16.895L9.04318 12.9331C9.04651 12.9162 9.04472 12.9058 9.04238 12.8983C9.0395 12.8892 9.03359 12.8784 9.02384 12.8685C9.01409 12.8585 9.00348 12.8524 8.99437 12.8493C8.98698 12.8468 8.97665 12.8448 8.95961 12.8477L4.9745 13.5399C2.70395 13.9343 0.704907 12.0079 1.01489 9.72434C1.0516 9.45392 1.12066 9.18889 1.22058 8.93495L3.20868 3.88262C3.69551 2.64546 4.70598 1.68793 5.96753 1.26833C7.76985 0.668857 9.68222 0.474372 11.5683 0.698737L14.0382 0.992548C15.5131 1.168 16.6722 2.33747 16.8344 3.81389L17.2464 7.56317C17.4009 8.96901 17.1071 10.3877 16.407 11.6166L12.5034 18.4687Z" fill="black"/>
</svg>
